<svg width="50" height="50" viewBox="0 0 50 50" fill="none" xmlns="http://www.w3.org/2000/svg">
<g clip-path="url(#clip0_19_34)">
<path d="M50.0062 25.1563C50.0062 11.2625 38.8125 0 25.0062 0C11.1937 0.003125 0 11.2625 0 25.1594C0 37.7125 9.14375 48.1187 21.0937 50.0062V32.4281H14.75V25.1594H21.1V19.6125C21.1 13.3094 24.8344 9.82812 30.5437 9.82812C33.2812 9.82812 36.1406 10.3188 36.1406 10.3188V16.5063H32.9875C29.8844 16.5063 28.9156 18.4469 28.9156 20.4375V25.1563H35.8469L34.7406 32.425H28.9125V50.0031C40.8625 48.1156 50.0062 37.7094 50.0062 25.1563Z" fill="black"/>
</g>
<defs>
<clipPath id="clip0_19_34">
<rect width="50" height="50" fill="white"/>
</clipPath>
</defs>
</svg>
